<?xml version="1.0" encoding="utf-8"?>
<!-- Generator: Adobe Illustrator 16.0.0, SVG Export Plug-In . SVG Version: 6.00 Build 0)  -->
<!DOCTYPE svg PUBLIC "-//W3C//DTD SVG 1.1//EN" "http://www.w3.org/Graphics/SVG/1.1/DTD/svg11.dtd">
<svg version="1.1" id="Layer_1" xmlns="http://www.w3.org/2000/svg" xmlns:xlink="http://www.w3.org/1999/xlink" x="0px" y="0px"
	 width="18.023px" height="15.44px" viewBox="2.988 2.537 18.023 15.44" enable-background="new 2.988 2.537 18.023 15.44"
	 xml:space="preserve">
<g id="Facebook" display="none">
	<path display="inline" fill="#FFFFFF" d="M82.732,100.532h27V88.283v-12v-2.001c0-11.551,0.297-29.4,8.697-40.449
		c8.85-11.702,21-19.65,41.901-19.65c34.048,0,48.399,4.85,48.399,4.85l-6.75,40.001c0,0-11.25-3.251-21.75-3.251
		s-19.899,3.75-19.899,14.25v4.25v14.001v12.249h43.048l-3,39.05h-40.048v135.701H109.73V139.582h-27L82.732,100.532L82.732,100.532
		z"/>
</g>
<polygon fill="#6D6D6D" points="2.988,3.597 5.822,3.597 6.987,5.187 7.814,12.116 7.285,14.405 18.92,14.405 19.153,13.347 
	9.361,13.347 9.637,12.286 17.245,11.598 21.012,3.597 8.11,4.656 6.479,2.537 2.988,2.537 "/>
<circle fill="#6D6D6D" cx="8.531" cy="16.345" r="1.632"/>
<circle fill="#6D6D6D" cx="17.179" cy="16.345" r="1.632"/>
</svg>
