<?xml version="1.0" encoding="utf-8"?>
<!-- Generator: Adobe Illustrator 16.0.0, SVG Export Plug-In . SVG Version: 6.00 Build 0)  -->
<!DOCTYPE svg PUBLIC "-//W3C//DTD SVG 1.1//EN" "http://www.w3.org/Graphics/SVG/1.1/DTD/svg11.dtd">
<svg version="1.1" id="Layer_1" xmlns="http://www.w3.org/2000/svg" xmlns:xlink="http://www.w3.org/1999/xlink" x="0px" y="0px"
	 width="32.835px" height="22.5px" viewBox="0 0 32.835 22.5" enable-background="new 0 0 32.835 22.5" xml:space="preserve">
<g>
	<path d="M23.417,1.833h-2.59l2.59,1.418l-2.656,1.417h2.656C27.047,4.667,30,7.62,30,11.25s-2.953,6.583-6.583,6.583h-5V16
		l-1.269,0.677l-1.777,0.948l-0.389,0.208l-2.657,1.417l2.589,1.417l0.38,0.208l1.854,0.965l1.269,0.66v-1.833h5
		c5.193,0,9.417-4.225,9.417-9.417S28.61,1.833,23.417,1.833z"/>
	<path d="M9.417,17.833c-3.63,0-6.583-2.953-6.583-6.583s2.953-6.583,6.583-6.583h5V6.5l1.269-0.677l1.777-0.948l0.39-0.208
		l2.656-1.417l-2.59-1.418L17.54,1.625L15.686,0.66L14.417,0v1.833h-5C4.225,1.833,0,6.057,0,11.25s4.225,9.417,9.417,9.417h2.589
		L9.417,19.25l2.657-1.417H9.417z"/>
</g>
</svg>
